# xmcd
#
# Track frame offsets: 
#        150
#        27940
#        56380
#        80595
#        118435
#        145837
#        170355
#        197680
#        229737
#
# Disc length: 3482 seconds
#
# Revision: 5
# Processed by: cddbd v1.5.1PL0 Copyright (c) Steve Scherf et al.
# Submitted via: ExactAudioCopy v0.95a5
#
DISCID=770d9809
DTITLE=Atlas, Natacha - The Remix Collection
DYEAR=2000
DGENRE=Electronica, Worldbeat
TTITLE0=Duden (Talvin Singh Remix)
TTITLE1=Yalla Chant (Youth Remix)
TTITLE2=Yalla Chant (Banco De Gaia Remix)
TTITLE3=Amulet (16B Remix)
TTITLE4=Yalla Chant (Transglobal Underground Remix)
TTITLE5=Amulet (TJ Rehmi Remix)
TTITLE6=One Brief Moment (Klute Remix)
TTITLE7=Bastet (Bullitnuts Remix)
TTITLE8=Duden (Spooky Remix)
EXTD=
EXTT0=
EXTT1=
EXTT2=
EXTT3=
EXTT4=
EXTT5=
EXTT6=
EXTT7=
EXTT8=
PLAYORDER=
